<svg width="222" height="188" viewBox="0 0 222 188" fill="none" xmlns="http://www.w3.org/2000/svg">
<path d="M98.9136 75.2264L104.722 84.0988C104.992 84.5176 105.334 84.8758 105.719 85.1734L106.067 84.7877C108.001 82.6605 109.186 79.9602 109.439 77.1001L106.557 71.7656L98.9191 75.2264H98.9136Z" fill="#FFC7B6"/>
<path d="M106.557 71.7656L109.434 77.1056" stroke="#231F20" stroke-width="0.5" stroke-linecap="round" stroke-linejoin="round"/>
<path d="M98.9136 75.2266L104.722 84.099C104.992 84.5178 105.334 84.876 105.719 85.1736" stroke="#231F20" stroke-width="0.5" stroke-linecap="round" stroke-linejoin="round"/>
<path d="M104.309 84.4025C104.838 85.0031 105.526 85.455 106.309 85.6975L107.775 86.1494C114.008 88.0782 118.763 88.6954 125.25 89.4063C129.311 89.8527 133.081 89.9794 133.863 90.299L134.006 90.0951C134.679 89.1473 134.976 87.99 134.849 86.8382C133.246 86.3257 129.851 85.163 128.005 84.3749C120.356 81.118 109.516 77.1943 109.516 77.1943L109.18 77.4644C106.932 79.2664 105.245 81.6746 104.314 84.397L104.309 84.4025Z" fill="#FFC7B6"/>
<path d="M109.516 77.1992C109.516 77.1992 120.356 81.1229 128.005 84.3798C129.851 85.1678 133.246 86.3306 134.849 86.8431M104.309 84.4018C104.838 85.0025 105.526 85.4544 106.309 85.6969L107.775 86.1488C114.008 88.0776 118.763 88.6948 125.25 89.4057C129.311 89.852 133.081 89.9788 133.863 90.2984" stroke="#231F20" stroke-width="0.5" stroke-linecap="round" stroke-linejoin="round"/>
<path d="M155.157 138.771L157.637 142.689L160.982 141.488L163.136 140.027L160.315 135.597L155.157 138.771Z" fill="#FFC7B6"/>
<path d="M157.637 142.69L162.696 150.658L177.035 142.194L176.148 141.676L174.759 141.307L165.082 141.88L164.057 141.34L162.944 139.962C162.944 139.962 163.103 140.298 161.285 141.257C159.472 142.216 157.637 142.69 157.637 142.69Z" fill="#625E8A"/>
<path d="M162.74 150.724L163.721 152.267L178.109 142.987L177.283 142.354L162.74 150.724Z" fill="#F2E7E3"/>
<path d="M155.157 138.771L163.726 152.267L178.181 142.943L176.368 141.741C175.668 141.482 174.924 141.372 174.18 141.416L165.682 141.923C164.889 141.973 164.134 141.581 163.704 140.915L160.315 135.597" stroke="#231F20" stroke-width="0.5" stroke-linecap="round" stroke-linejoin="round"/>
<path d="M162.696 150.653L177.206 142.304" stroke="#231F20" stroke-width="0.5" stroke-linecap="round" stroke-linejoin="round"/>
<path d="M157.637 142.69C157.637 142.69 162.415 141.401 163.07 139.924" stroke="#231F20" stroke-width="0.5" stroke-linecap="round" stroke-linejoin="round"/>
<path d="M143.05 101.304C144.086 102.56 144.978 103.938 145.7 105.404L160.491 135.498L154.374 139.213L133.835 108.804L133.968 108.512C135.538 105.079 138.558 102.522 142.201 101.535L143.044 101.309L143.05 101.304Z" fill="#F2E7E3"/>
<path d="M143.05 101.304C144.086 102.56 144.978 103.938 145.7 105.404L160.491 135.498L154.374 139.213L133.835 108.804" stroke="#231F20" stroke-width="0.5" stroke-linecap="round" stroke-linejoin="round"/>
<path d="M159.29 133.057L154.909 135.735" stroke="#231F20" stroke-width="0.5" stroke-linecap="round" stroke-linejoin="round"/>
<path d="M107.323 90.8555L140.366 100.318C141.253 100.571 142.124 100.885 142.967 101.254C142.813 105.332 141.11 109.195 138.205 112.056L138.15 112.111L114.129 113.202C103.41 113.687 93.32 108.143 87.9855 98.8351L87.2856 97.6172L107.328 90.861L107.323 90.8555Z" fill="#F2E7E3"/>
<path d="M138.145 112.111L114.123 113.202C103.405 113.687 93.3146 108.143 87.9802 98.8351L87.2803 97.6172M107.323 90.8555L140.366 100.318C141.253 100.571 142.124 100.885 142.967 101.254" stroke="#231F20" stroke-width="0.5" stroke-linecap="round" stroke-linejoin="round"/>
<path d="M109.599 93.1202L134.998 93.0045L132.045 87.7803H127.95H115.766L109.599 93.1202Z" fill="#91B1DA"/>
<path d="M109.599 93.1203V95.4569L136.371 95.7875L146.411 69.8096L144.62 68.8838L134.998 93.0046L109.599 93.1203Z" fill="#625E8A"/>
<path d="M138.751 71.5283L132.044 87.7797L134.998 93.004L144.554 69.043L138.751 71.5283Z" fill="#C7CFE4"/>
<path d="M109.599 93.1203H135.059L144.62 68.8838L146.411 69.8096L136.371 95.7875L109.599 95.4569V93.1203Z" stroke="#231F20" stroke-width="0.5" stroke-linecap="round" stroke-linejoin="round"/>
<path d="M135.059 93.1202L132.116 87.7803" stroke="#231F20" stroke-width="0.5" stroke-linecap="round" stroke-linejoin="round"/>
<path d="M144.62 68.8838L138.663 71.5675L132.116 87.7803H115.766L109.599 93.1203" stroke="#231F20" stroke-width="0.5" stroke-linecap="round" stroke-linejoin="round"/>
<path d="M175.547 125.313L173.045 130.031L175.993 131.21L177.503 129.011L177.955 126.311L175.547 125.313Z" fill="#FFC7B6"/>
<path d="M178.059 126.234C178.059 126.234 178.137 127.623 177.586 128.791C177.034 129.96 175.811 131.211 175.811 131.211L182.655 134.164L194.272 121.638C194.272 121.638 192.129 121.087 189.786 122.41C187.444 123.732 184.446 126.857 181.504 126.918C178.566 126.978 178.059 126.223 178.059 126.223V126.234Z" fill="#625E8A"/>
<path d="M182.65 134.17L184.645 134.996L195.937 121.644L194.267 121.869L182.65 134.17Z" fill="#F2E7E3"/>
<path d="M173.045 130.031L184.645 134.996L195.937 121.644H192.873C191.539 121.644 190.244 122.046 189.147 122.801L184.827 125.777C183.053 127 180.788 127.281 178.765 126.532L175.806 125.435" stroke="#231F20" stroke-width="0.5" stroke-linecap="round" stroke-linejoin="round"/>
<path d="M194.267 121.644L182.711 134.17" stroke="#231F20" stroke-width="0.5" stroke-linecap="round" stroke-linejoin="round"/>
<path d="M177.949 126.234C177.949 126.234 178.164 129.69 175.806 131.216" stroke="#231F20" stroke-width="0.5" stroke-linecap="round" stroke-linejoin="round"/>
<path d="M106.568 97.3906L140.294 104.009C141.204 104.185 142.096 104.422 142.967 104.72C143.16 108.792 141.788 112.788 139.143 115.89L139.093 115.951L115.248 119.081C104.612 120.475 94.0862 115.808 87.9802 106.99L87.1812 105.833L106.574 97.3961L106.568 97.3906Z" fill="#F2E7E3"/>
<path d="M139.087 115.946L115.242 119.076C104.606 120.47 94.0803 115.802 87.9744 106.985L87.1753 105.828M106.568 97.3906L140.294 104.009C141.203 104.185 142.096 104.422 142.967 104.72" stroke="#231F20" stroke-width="0.5" stroke-linecap="round" stroke-linejoin="round"/>
<path d="M83.4829 59.1348C86.0013 57.443 89.2417 57.2612 91.9365 58.6499L92.0191 58.694C98.0535 61.8076 103.404 66.0895 107.769 71.2862L97.6953 79.7067L89.5062 68.933L88.8725 68.1726C86.6461 65.4943 84.8441 62.4854 83.5325 59.2561L83.4829 59.1348Z" fill="#91B1DA"/>
<path d="M83.4829 59.1348C86.0013 57.443 89.2417 57.2612 91.9365 58.6499L92.0191 58.694C98.0535 61.8076 103.404 66.0895 107.769 71.2862L97.6953 79.7067L89.5062 68.933" stroke="#231F20" stroke-width="0.5" stroke-linecap="round" stroke-linejoin="round"/>
<path d="M79.7357 89.0034L83.4941 104.864C83.7255 105.833 84.6954 106.429 85.6653 106.197L101.707 102.312C103.862 102.009 105.642 100.477 106.27 98.3938L108.293 87.78L102.727 80.1475L101.018 73.4354C100.341 70.7736 98.8472 68.3985 96.7476 66.6295L87.8035 57.4375L81.0087 58.468C79.2452 58.7325 77.5865 59.4655 76.2033 60.5897L72.4229 63.6537L79.7357 89.0034Z" fill="#91B1DA"/>
<path d="M75.9002 60.5781L72.4229 63.6476" stroke="#231F20" stroke-width="0.5" stroke-linecap="round" stroke-linejoin="round"/>
<path d="M93.0391 86.1044C95.3977 85.7076 100.6 82.335 100.6 82.335C100.6 82.335 102.077 86.3799 98.4396 87.9119" stroke="#231F20" stroke-width="0.5" stroke-linecap="round" stroke-linejoin="round"/>
<path d="M79.7358 89.0036L83.4942 104.864C83.7257 105.834 84.6956 106.429 85.6655 106.197L101.707 102.312C103.862 102.009 105.642 100.477 106.27 98.3941L108.293 87.7802L102.727 80.1478L101.019 73.4356C100.341 70.7739 98.8473 68.3987 96.7477 66.6298L93.7553 64.1113" stroke="#231F20" stroke-width="0.5" stroke-linecap="round" stroke-linejoin="round"/>
<path d="M80.7168 88.3039L88.1178 95.8978C88.465 96.256 88.8673 96.5425 89.3026 96.763L89.5727 96.3221C91.0606 93.8643 91.7053 90.9877 91.4078 88.1275L87.5557 83.4434L80.7223 88.3039H80.7168Z" fill="#FFC7B6"/>
<path d="M87.5503 83.4434L91.4023 88.1275" stroke="#231F20" stroke-width="0.5" stroke-linecap="round" stroke-linejoin="round"/>
<path d="M80.7168 88.3037L88.1178 95.8976C88.465 96.2558 88.8673 96.5424 89.3026 96.7628" stroke="#231F20" stroke-width="0.5" stroke-linecap="round" stroke-linejoin="round"/>
<path d="M72.4228 63.6484C70.1469 65.6544 69.1494 68.7404 69.8107 71.7052L69.8328 71.7934C71.3152 78.4174 74.0981 84.6832 78.0163 90.2215L88.7183 82.6111L80.3749 71.9587L79.7963 71.1542C77.7683 68.3161 75.3215 65.8142 72.5275 63.7256L72.4228 63.6484Z" fill="#91B1DA"/>
<path d="M72.4228 63.6484C70.1469 65.6544 69.1494 68.7404 69.8107 71.7052L69.8328 71.7934C71.3152 78.4174 74.0981 84.6832 78.0163 90.2215L88.7183 82.6111L80.3749 71.9587" stroke="#231F20" stroke-width="0.5" stroke-linecap="round" stroke-linejoin="round"/>
<path d="M80.7168 69.9961L79.7358 73.7765" stroke="#231F20" stroke-width="0.5" stroke-linecap="round" stroke-linejoin="round"/>
<path d="M89.3025 96.7623C90.0189 97.1205 90.829 97.2803 91.6446 97.2087L93.1711 97.0765C99.6739 96.5144 104.303 95.2854 110.58 93.4944C114.509 92.3757 118.047 91.0697 118.89 91.0697L118.945 90.8272C119.21 89.6975 119.05 88.5127 118.499 87.4932C116.818 87.6254 113.241 87.8293 111.23 87.7963C102.92 87.664 91.3966 88.1214 91.3966 88.1214L91.1872 88.5016C89.7875 91.0201 89.1317 93.8802 89.297 96.7568L89.3025 96.7623Z" fill="#FFC7B6"/>
<path d="M91.4024 88.1273C91.4024 88.1273 102.92 87.6699 111.236 87.8021C113.242 87.8352 116.824 87.6258 118.504 87.499M89.3027 96.7627C90.0191 97.1209 90.8292 97.2807 91.6448 97.2091L93.1713 97.0768C99.6741 96.5147 104.303 95.2858 110.58 93.4948C114.509 92.3761 118.047 91.07 118.89 91.07" stroke="#231F20" stroke-width="0.5" stroke-linecap="round" stroke-linejoin="round"/>
<path d="M130.055 89.5883C128.462 89.1805 126.991 87.3233 125.966 86.3589C125.63 86.0448 123.778 87.0864 118.504 87.4942L118.46 87.643C118.102 88.7947 118.262 90.0457 118.895 91.0707C120.923 91.0707 124.263 91.4619 124.985 90.8723C125.707 90.2826 126.164 89.693 126.164 89.693C126.164 89.693 126.677 90.6188 128.01 90.9715C129.487 91.3572 129.63 90.3157 129.63 90.3157L130.099 90.0842L130.06 89.5828L130.055 89.5883Z" fill="#FFC7B6"/>
<path d="M118.504 87.5C123.778 87.0922 125.629 86.0507 125.966 86.3648C126.996 87.3292 128.467 89.1863 130.055 89.5941C130.055 89.5941 130.336 90.4042 129.36 90.3271" stroke="#231F20" stroke-width="0.5" stroke-linecap="round" stroke-linejoin="round"/>
<path d="M118.896 91.0758C120.923 91.0758 124.263 91.4671 124.985 90.8775C125.707 90.2878 126.164 89.6981 126.164 89.6981C126.164 89.6981 126.677 90.624 128.01 90.9766C129.487 91.3624 129.631 90.3209 129.631 90.3209M126.55 88.585C127.702 89.373 128.154 90.387 129.757 90.3319" stroke="#231F20" stroke-width="0.5" stroke-linecap="round" stroke-linejoin="round"/>
<path d="M142.967 104.719C144.51 105.243 145.992 105.943 147.381 106.808L175.811 124.586L172.571 130.967L139.093 115.945L139.054 115.625C138.58 111.878 139.798 108.114 142.377 105.353L142.972 104.714L142.967 104.719Z" fill="#F2E7E3"/>
<path d="M142.967 104.72C144.51 105.243 145.992 105.943 147.381 106.808L175.811 124.586L172.571 130.968L139.093 115.945" stroke="#231F20" stroke-width="0.5" stroke-linecap="round" stroke-linejoin="round"/>
<path d="M173.502 123.147L171.193 127.727" stroke="#231F20" stroke-width="0.5" stroke-linecap="round" stroke-linejoin="round"/>
<path d="M87.9856 48.5607L86.2607 53.3275C86.2607 53.3275 88.6304 55.6751 90.1569 55.598C91.6889 55.5263 93.298 54.1266 92.8572 52.567C92.4163 51.0075 91.4189 50.1753 91.4189 50.1753C91.4189 50.1753 92.5541 48.6874 91.7275 47.7947C90.8953 46.9019 89.705 47.5301 89.705 47.5301L87.9856 48.5552V48.5607Z" fill="#E58A9C"/>
<path d="M83.3733 41.5889C83.3733 41.5889 84.9715 42.895 85.7981 43.9034C86.6302 44.9119 86.9554 45.8157 86.9554 45.8157C86.9554 45.8157 87.9418 45.3693 88.3055 46.1188C88.6692 46.8627 87.9087 47.9373 87.9087 47.9373C87.9087 47.9373 88.3716 50.3511 87.4017 51.8886C86.4373 53.4261 85.6438 53.7953 85.6438 53.7953C85.6438 53.7953 85.6768 55.7407 86.3602 56.5067C87.0435 57.2727 87.6883 57.7521 87.6883 57.7521C87.6883 57.7521 86.6137 59.2786 85.5666 59.6258C84.5196 59.9729 81.4942 59.5982 81.4942 59.5982C81.4942 59.5982 82.2271 58.1158 81.946 57.0908C81.665 56.0658 81.5107 55.7076 81.5107 55.7076C81.5107 55.7076 81.8689 54.3133 81.4556 53.7127C81.0423 53.112 80.3479 53.1671 80.3479 53.1671L77.5264 47.75C77.5264 47.75 78.8931 46.6699 79.6921 44.4876C80.4912 42.3053 80.3203 40.8174 80.3203 40.8174C80.3203 40.8174 82.4145 41.7101 83.3733 41.5944V41.5889Z" fill="#FFC7B6"/>
<path d="M72.5889 42.1344C72.5889 42.1344 70.5058 45.5897 71.2167 48.7033C71.9276 51.8169 74.3799 54.8533 74.3799 54.8533C74.3799 54.8533 71.2663 55.3328 70.7593 57.3442C70.2523 59.3556 71.4096 60.4854 72.3464 60.557C73.2832 60.6286 74.2752 59.9288 74.4846 59.6863C74.694 59.4438 75.7355 58.1929 75.7355 58.1929C75.7355 58.1929 75.7135 61.6316 78.4028 61.56C81.0921 61.4883 81.5439 58.9919 81.5439 58.9919C81.5439 58.9919 82.1501 58.1929 81.9958 57.3222C81.8415 56.4515 81.5109 55.7846 81.5109 55.7846C81.5109 55.7846 81.9628 54.17 81.4117 53.6409C80.8606 53.1119 80.3481 53.156 80.3481 53.156L77.5982 47.7885C77.5982 47.7885 79.2184 46.1683 79.6923 44.4765C80.1662 42.7847 80.3316 40.9496 80.3316 40.9496C80.3316 40.9496 81.5825 41.4345 82.365 41.5723C83.1476 41.7101 83.4672 41.6935 83.4672 41.6935L85.4235 43.2806C85.4235 43.2806 85.7432 42.3328 85.2637 41.3794C84.7898 40.426 80.5355 37.4778 77.0196 39.0594C73.5037 40.641 72.5944 42.1289 72.5944 42.1289L72.5889 42.1344Z" fill="#E58A9C"/>
<path d="M80.5024 40.8779C81.533 41.5282 82.7784 41.7541 83.9687 41.5006H83.9743" stroke="#231F20" stroke-width="0.5" stroke-linecap="round" stroke-linejoin="round"/>
<path d="M83.2742 41.5947L83.3789 41.6664C84.9384 42.741 86.1839 44.2013 86.9995 45.9097L87.5616 45.8215C88.2559 45.7168 88.7409 46.4993 88.3276 47.0725L87.9143 47.6511L87.8647 49.8113C87.804 52.3959 85.743 54.4845 83.1584 54.5892L82.5908 54.6113M86.1563 49.2217C86.1673 50.2246 85.1754 50.0593 85.1754 50.0593" stroke="#231F20" stroke-width="0.5" stroke-linecap="round" stroke-linejoin="round"/>
<path d="M86.2114 46.5539L86.9995 45.9092" stroke="#231F20" stroke-width="0.5" stroke-linecap="round" stroke-linejoin="round"/>
<path d="M80.425 39.6709L80.1715 42.3877C79.9841 44.4322 79.0252 46.3224 77.4932 47.6891L76.5288 48.5488" stroke="#231F20" stroke-width="0.5" stroke-linecap="round" stroke-linejoin="round"/>
<path d="M77.4932 47.684L80.3478 53.1618C81.1248 53.1067 81.7586 53.779 81.6594 54.5505L81.5106 55.6967C82.3041 57.3004 81.9515 59.2402 80.6399 60.4581L80.2376 60.8328C79.3503 61.6594 78.0278 61.7917 76.9917 61.1635C76.132 60.6399 75.6361 59.6811 75.7022 58.6781L75.7463 57.9948L74.3576 59.7637C73.8561 60.403 73.0405 60.7006 72.2469 60.5352C70.9794 60.2707 70.241 58.9481 70.6763 57.7302C71.1172 56.4903 72.1257 55.5314 73.3822 55.1512L74.3796 54.8481L73.0791 53.1287C71.2054 50.6544 70.6268 47.436 71.5305 44.4657L71.6242 44.1571C72.4453 41.4568 74.6882 39.4233 77.4546 38.8667L77.8183 38.7951C80.436 38.2716 83.1363 39.1147 84.9934 41.0325C85.4012 41.4568 85.5941 42.0465 85.5059 42.6251L85.3847 43.4517M85.7429 53.7239C85.7429 53.7239 85.787 56.9201 87.5615 57.5539M87.8921 48.6154L89.8044 47.4746C90.2342 47.2156 90.7632 47.1881 91.2206 47.403C92.1354 47.8328 92.3779 49.0232 91.7056 49.7781L91.4521 50.0592L92.2732 51.0897C93.199 52.2525 93.0447 53.9388 91.9205 54.9142C90.901 55.8014 89.391 55.8235 88.344 54.9693L86.2829 53.294" stroke="#231F20" stroke-width="0.5" stroke-linecap="round" stroke-linejoin="round"/>
<path d="M87.7873 57.537C87.1591 59.0139 85.6601 59.9342 84.0565 59.824L81.3121 59.6421M81.0586 45.5731C81.3231 45.1102 81.9348 44.9503 81.9348 44.9503M84.0895 43.1483C84.5469 42.9113 84.85 42.8838 84.85 42.8838" stroke="#231F20" stroke-width="0.5" stroke-linecap="round" stroke-linejoin="round"/>
<path d="M82.3647 46.5215L82.6293 46.8852" stroke="#231F20" stroke-width="0.5" stroke-linecap="round" stroke-linejoin="round"/>
<path d="M85.3022 44.2236L85.7045 44.8133" stroke="#231F20" stroke-width="0.5" stroke-linecap="round" stroke-linejoin="round"/>
<path d="M189.374 70.4763L193.253 91.5606C193.253 91.5606 206.573 95.1482 221 87.9841L216.338 73.0939L209.56 68.542C209.56 68.542 200.114 72.901 189.379 70.4763H189.374Z" fill="#FFC7B6"/>
<path d="M209.56 68.5469L210.717 74.5702L216.338 73.0988L209.56 68.5469Z" fill="#E58A9C"/>
<path d="M189.374 70.4763L193.253 91.5606C193.253 91.5606 206.573 95.1482 221 87.9841L216.338 73.0939L209.56 68.542C209.56 68.542 200.114 72.901 189.379 70.4763H189.374Z" stroke="#231F20" stroke-width="0.5" stroke-linecap="round" stroke-linejoin="round"/>
<path d="M209.56 68.5469L210.717 74.5702L216.338 73.0988" stroke="#231F20" stroke-width="0.5" stroke-linecap="round" stroke-linejoin="round"/>
<path d="M22.082 53.3374C22.082 53.3374 40.9896 56.6769 40.3889 70.5917L54.0778 63.323C54.0778 63.323 52.7938 53.8003 40.6149 49.7168H30.6293L22.082 53.3374Z" fill="#F2E7E3"/>
<path d="M30.6294 49.7168L37.5895 53.3374L40.615 49.7168" fill="#F2E7E3"/>
<path d="M30.6294 49.7168L37.5895 53.3374L40.615 49.7168H30.6294Z" fill="#FFC7B6"/>
<path d="M22.082 53.3374C22.082 53.3374 40.9896 56.6769 40.3889 70.5917L54.0778 63.323C54.0778 63.323 52.7938 53.8003 40.6149 49.7168H30.6293L22.082 53.3374Z" stroke="#231F20" stroke-width="0.5" stroke-linecap="round" stroke-linejoin="round"/>
<path d="M30.6294 49.7168L37.5895 53.3374L40.615 49.7168" stroke="#231F20" stroke-width="0.5" stroke-linecap="round" stroke-linejoin="round"/>
<path d="M69.6017 3.49775L69.4474 2.91912C69.1058 1.60203 67.9375 0.769902 66.8353 1.05646L57.1142 3.59143C56.0176 3.878 55.4059 5.17855 55.7476 6.49563L60.2554 23.772C60.5971 25.0891 61.7654 25.9212 62.8675 25.6347L84.9052 19.8869C86.0019 19.6003 86.6136 18.2998 86.2719 16.9827L83.1583 5.0518C82.8166 3.73471 81.6483 2.90258 80.5462 3.18914L72.2083 5.36591C71.1117 5.65248 69.9434 4.82034 69.5962 3.50326L69.6017 3.49775Z" fill="#C7CFE4"/>
<path d="M69.6017 3.49775L69.4474 2.91912C69.1058 1.60203 67.9375 0.769902 66.8353 1.05646L57.1142 3.59143C56.0176 3.878 55.4059 5.17855 55.7476 6.49563L60.2554 23.772C60.5971 25.0891 61.7654 25.9212 62.8675 25.6347L84.9052 19.8869C86.0019 19.6003 86.6136 18.2998 86.2719 16.9827L83.1583 5.0518C82.8166 3.73471 81.6483 2.90258 80.5462 3.18914L72.2083 5.36591C71.1117 5.65248 69.9434 4.82034 69.5962 3.50326L69.6017 3.49775Z" stroke="#231F20" stroke-width="0.5" stroke-linecap="round" stroke-linejoin="round"/>
<path d="M75.0794 6.34055L52.959 12.1104C51.1239 12.5898 50.4626 14.8492 51.7466 16.2435L59.8585 25.0387C60.4867 25.7221 61.4401 26.0031 62.3384 25.7661L84.4587 19.9963C86.2938 19.5169 86.9551 17.2575 85.6711 15.8632L77.5592 7.06798C76.931 6.38464 75.9776 6.10359 75.0794 6.34055Z" fill="#E58A9C"/>
<path d="M75.0794 6.34055L52.959 12.1104C51.1239 12.5898 50.4626 14.8492 51.7466 16.2435L59.8585 25.0387C60.4867 25.7221 61.4401 26.0031 62.3384 25.7661L84.4587 19.9963C86.2938 19.5169 86.9551 17.2575 85.6711 15.8632L77.5592 7.06798C76.931 6.38464 75.9776 6.10359 75.0794 6.34055Z" stroke="#231F20" stroke-width="0.5" stroke-linecap="round" stroke-linejoin="round"/>
<path d="M16.0698 93.5671L15.9486 93.1097C15.6786 92.0681 14.7528 91.4123 13.8876 91.6383L6.211 93.6387C5.34581 93.8646 4.86086 94.8896 5.13089 95.9312L8.69087 109.576C8.9609 110.617 9.88671 111.273 10.7519 111.047L28.155 106.506C29.0202 106.28 29.5052 105.255 29.2352 104.214L26.7773 94.796C26.5073 93.7544 25.5815 93.0986 24.7163 93.3246L18.1309 95.044C17.2657 95.2699 16.3399 94.6086 16.0698 93.5726V93.5671Z" fill="#C7CFE4"/>
<path d="M16.0698 93.5671L15.9486 93.1097C15.6786 92.0681 14.7528 91.4123 13.8876 91.6383L6.211 93.6387C5.34581 93.8646 4.86086 94.8896 5.13089 95.9312L8.69087 109.576C8.9609 110.617 9.88671 111.273 10.7519 111.047L28.155 106.506C29.0202 106.28 29.5052 105.255 29.2352 104.214L26.7773 94.796C26.5073 93.7544 25.5815 93.0986 24.7163 93.3246L18.1309 95.044C17.2657 95.2699 16.3399 94.6086 16.0698 93.5726V93.5671Z" stroke="#231F20" stroke-width="0.5" stroke-linecap="round" stroke-linejoin="round"/>
<path d="M20.396 95.8157L2.92674 100.373C1.4774 100.753 0.953875 102.539 1.96786 103.636L8.37142 110.579C8.86739 111.119 9.62237 111.34 10.3333 111.152L27.8025 106.595C29.2519 106.215 29.7754 104.429 28.7614 103.332L22.3578 96.3888C21.8619 95.8487 21.1069 95.6283 20.396 95.8157Z" fill="#E58A9C"/>
<path d="M20.396 95.8157L2.92674 100.373C1.4774 100.753 0.953875 102.539 1.96786 103.636L8.37142 110.579C8.86739 111.119 9.62237 111.34 10.3333 111.152L27.8025 106.595C29.2519 106.215 29.7754 104.429 28.7614 103.332L22.3578 96.3888C21.8619 95.8487 21.1069 95.6283 20.396 95.8157Z" stroke="#231F20" stroke-width="0.5" stroke-linecap="round" stroke-linejoin="round"/>
<path d="M119.64 130.808L119.667 130.196C119.722 128.813 118.835 127.656 117.683 127.612L107.488 127.193C106.337 127.143 105.356 128.229 105.301 129.607L104.557 147.732C104.502 149.115 105.389 150.272 106.541 150.316L129.658 151.264C130.81 151.314 131.791 150.228 131.846 148.851L132.359 136.335C132.414 134.952 131.527 133.795 130.375 133.751L121.629 133.393C120.477 133.343 119.59 132.186 119.645 130.808H119.64Z" fill="#C7CFE4"/>
<path d="M119.64 130.808L119.667 130.196C119.722 128.813 118.835 127.656 117.683 127.612L107.488 127.193C106.337 127.143 105.356 128.229 105.301 129.607L104.557 147.732C104.502 149.115 105.389 150.272 106.541 150.316L129.658 151.264C130.81 151.314 131.791 150.228 131.846 148.851L132.359 136.335C132.414 134.952 131.527 133.795 130.375 133.751L121.629 133.393C120.477 133.343 119.59 132.186 119.645 130.808H119.64Z" stroke="#231F20" stroke-width="0.5" stroke-linecap="round" stroke-linejoin="round"/>
<path d="M124.12 135.195L100.914 134.241C98.9908 134.164 97.6737 136.165 98.5114 137.901L103.785 148.851C104.193 149.699 105.036 150.256 105.979 150.294L129.185 151.248C131.108 151.325 132.425 149.324 131.587 147.589L126.313 136.639C125.906 135.79 125.062 135.233 124.12 135.195Z" fill="#E58A9C"/>
<path d="M124.12 135.195L100.914 134.241C98.9908 134.164 97.6737 136.165 98.5114 137.901L103.785 148.851C104.193 149.699 105.036 150.256 105.979 150.294L129.185 151.248C131.108 151.325 132.425 149.324 131.587 147.589L126.313 136.639C125.906 135.79 125.062 135.233 124.12 135.195Z" stroke="#231F20" stroke-width="0.5" stroke-linecap="round" stroke-linejoin="round"/>
<path d="M15.965 93.5175L15.8438 93.0491C15.5682 91.9855 14.6204 91.3132 13.7331 91.5446L5.8747 93.5946C4.98746 93.8261 4.49149 94.8787 4.77254 95.9422L8.41518 109.907C8.69072 110.97 9.63858 111.643 10.5258 111.411L28.3367 106.765C29.224 106.534 29.72 105.481 29.4389 104.418L26.926 94.774C26.6504 93.7104 25.7026 93.038 24.8153 93.2695L18.0756 95.0275C17.1884 95.2589 16.246 94.5866 15.965 93.523V93.5175Z" stroke="#231F20" stroke-width="0.5" stroke-linecap="round" stroke-linejoin="round"/>
<path d="M20.3954 95.8157L2.51836 100.478C1.03595 100.864 0.501405 102.693 1.53744 103.817L8.08978 110.926C8.59678 111.477 9.36829 111.703 10.0957 111.516L27.9728 106.854C29.4552 106.468 29.9897 104.639 28.9537 103.514L22.4013 96.4054C21.8944 95.8543 21.1228 95.6284 20.3954 95.8157Z" stroke="#231F20" stroke-width="0.5" stroke-linecap="round" stroke-linejoin="round"/>
<path d="M177.746 30.0326L180.159 36.3535L200.819 28.473L195.689 15.0156L191.33 20.2619L187.941 20.2233L182.799 29.2611L179.674 27.459L177.746 30.0326Z" fill="#91B1DA"/>
<path d="M177.746 30.0326L180.159 36.3535L200.819 28.473L195.689 15.0156" stroke="#231F20" stroke-width="0.5" stroke-linecap="round" stroke-linejoin="round"/>
<path d="M176.159 31.7957L179.675 27.4586L182.799 29.2607L187.941 20.223L191.33 20.2615L196.411 13.9902" stroke="#231F20" stroke-width="0.5" stroke-linecap="round" stroke-linejoin="round"/>
<path d="M197.127 13.1143C196.945 13.6543 196.791 14.3762 196.813 14.9218L196.322 14.1117L195.43 13.8031C195.964 13.7094 196.642 13.4118 197.133 13.1198L197.127 13.1143Z" fill="#231F20"/>
<path d="M106.381 170.404L103.157 176.356L122.604 186.887L129.465 174.223L122.648 174.339L120.466 171.744L110.255 173.733L109.588 170.189L106.381 170.404Z" fill="#91B1DA"/>
<path d="M106.381 170.404L103.157 176.356L122.604 186.887L129.465 174.223" stroke="#231F20" stroke-width="0.5" stroke-linecap="round" stroke-linejoin="round"/>
<path d="M104.005 170.349L109.588 170.189L110.255 173.733L120.466 171.744L122.648 174.339L130.711 174.102" stroke="#231F20" stroke-width="0.5" stroke-linecap="round" stroke-linejoin="round"/>
<path d="M131.841 174.075C131.317 174.29 130.667 174.642 130.264 175.011L130.562 174.113L130.215 173.231C130.634 173.579 131.306 173.893 131.841 174.075Z" fill="#231F20"/>
<path d="M153.492 21.7115L135.362 22.6097L135.296 21.2816C135.268 20.6754 134.75 20.207 134.144 20.2346L123.144 20.7856C122.538 20.8132 122.07 21.3312 122.097 21.9374L122.263 25.2163L122.384 27.6466L122.395 27.856C122.395 27.9332 122.411 28.0103 122.433 28.0819C122.428 28.126 122.411 28.1646 122.417 28.2032L123.299 45.9149C123.332 46.5652 123.883 47.0667 124.533 47.0336L154.683 45.5347C155.333 45.5016 155.834 44.9505 155.801 44.3002L154.732 22.8191C154.699 22.1688 154.148 21.6674 153.498 21.7004L153.492 21.7115Z" fill="#C7CFE4"/>
<path d="M134.109 20.2557L123.024 20.8056C122.48 20.8326 122.061 21.2956 122.088 21.8397L122.324 26.5897C122.351 27.1338 122.814 27.553 123.358 27.526L134.443 26.9761C134.987 26.9491 135.406 26.4862 135.379 25.942L135.144 21.1921C135.117 20.6479 134.654 20.2287 134.109 20.2557Z" fill="#91B1DA"/>
<path d="M153.493 21.7112L135.864 22.5874C135.505 22.6039 135.23 22.907 135.246 23.2652L135.395 26.2686C135.412 26.6268 135.136 26.9299 134.778 26.9464L123.018 27.5306C122.66 27.5471 122.384 27.8502 122.401 28.2084L123.282 45.9201C123.315 46.5704 123.866 47.0719 124.517 47.0388L154.666 45.5399C155.317 45.5068 155.818 44.9557 155.785 44.3055L154.716 22.8243C154.683 22.1741 154.132 21.6726 153.482 21.7056L153.493 21.7112Z" stroke="#231F20" stroke-width="0.5" stroke-linecap="round" stroke-linejoin="round"/>
<path d="M134.109 20.2557L123.024 20.8056C122.48 20.8326 122.061 21.2956 122.088 21.8397L122.324 26.5897C122.351 27.1338 122.814 27.553 123.358 27.526L134.443 26.9761C134.987 26.9491 135.406 26.4862 135.379 25.942L135.144 21.1921C135.117 20.6479 134.654 20.2287 134.109 20.2557Z" stroke="#231F20" stroke-width="0.5" stroke-linecap="round" stroke-linejoin="round"/>
<path d="M82.9877 152.702L61.5231 136.352L62.7189 134.781C63.2645 134.065 63.1267 133.034 62.4103 132.488L49.3828 122.569C48.6664 122.023 47.6359 122.161 47.0903 122.878L44.131 126.763L41.9377 129.639L41.7503 129.887C41.6787 129.981 41.6236 130.08 41.574 130.179C41.5299 130.218 41.4748 130.251 41.4362 130.301L25.4604 151.275C24.8762 152.046 25.025 153.148 25.791 153.733L61.4955 180.923C62.267 181.507 63.3637 181.358 63.9534 180.592L83.3238 155.154C83.908 154.383 83.7592 153.281 82.9932 152.697L82.9877 152.702Z" fill="#C7CFE4"/>
<path d="M62.7562 132.747L48.8712 122.173C48.4378 121.843 47.8189 121.927 47.4888 122.36L42.6209 128.752C42.2909 129.186 42.3747 129.805 42.8081 130.135L56.6931 140.708C57.1265 141.038 57.7455 140.955 58.0755 140.521L62.9434 134.129C63.2735 133.696 63.1897 133.077 62.7562 132.747Z" fill="#91B1DA"/>
<path d="M82.9875 152.702L62.1125 136.803C61.6882 136.483 61.0875 136.56 60.7624 136.985L58.0511 140.539C57.7314 140.964 57.1253 141.046 56.7009 140.721L42.7751 130.118C42.3508 129.799 41.7501 129.876 41.425 130.3L25.4491 151.274C24.865 152.046 25.0138 153.142 25.7798 153.732L61.4843 180.922C62.2558 181.507 63.3525 181.358 63.9421 180.592L83.3126 155.154C83.8968 154.382 83.748 153.286 82.982 152.696L82.9875 152.702Z" stroke="#231F20" stroke-width="0.5" stroke-linecap="round" stroke-linejoin="round"/>
<path d="M62.7562 132.747L48.8712 122.173C48.4378 121.843 47.8189 121.927 47.4888 122.36L42.6209 128.752C42.2909 129.186 42.3747 129.805 42.8081 130.135L56.6931 140.708C57.1265 141.038 57.7455 140.955 58.0755 140.521L62.9434 134.129C63.2735 133.696 63.1897 133.077 62.7562 132.747Z" stroke="#231F20" stroke-width="0.5" stroke-linecap="round" stroke-linejoin="round"/>
</svg>
